<?xml version="1.0" encoding="utf-8"?>
<svg viewBox="0 0 100.7666 101.76577" width="100.767px" height="101.766px" xmlns="http://www.w3.org/2000/svg">
  <g transform="matrix(1, 0, 0, 1, -189.774063, -129.107529)" style="">
    <title>sidekick-logo</title>
    <g data-paper-data="{&quot;isPaintingLayer&quot;:true}" fill-rule="evenodd" stroke-linecap="round" stroke-linejoin="round" style="mix-blend-mode: normal">
      <title>kadse</title>
      <g style="pointer-events: none;" transform="matrix(1, 0, 0, 1, -0.000002, 0)">
        <title>umhang</title>
        <path d="M 282.753 195.14 L 282.753 195.257 C 281.572 196.909 281.304 200.652 278.647 200.662 C 277.042 200.668 276.31 199.295 274.939 200.561 C 273.741 201.669 272.606 202.859 271.442 204.005 L 270.975 204.005 C 269.31 203.469 267.321 203.437 265.587 203.18 C 263.978 202.942 262.367 202.757 260.751 202.578 C 257.171 202.182 253.601 201.736 250.028 201.292 C 244.016 200.545 237.996 199.851 231.989 199.065 C 225.984 198.28 219.905 198.058 214.291 195.597 C 212.967 195.016 211.572 194.404 210.321 193.676 C 209.122 192.98 208.114 191.899 207.077 190.989 C 205.953 190.002 204.812 188.715 203.497 187.986 C 202.409 187.383 201.3 187.703 200.132 187.873 C 198.807 188.065 197.53 188.555 196.231 188.207 C 195.112 187.907 193.702 187.824 192.679 187.279 C 191.553 186.678 190.869 185.213 190.374 184.095 C 189.455 181.451 190.7 179.246 192.174 177.773 C 192.94 177.071 193.69 176.031 194.739 175.854 C 195.897 175.66 197.595 176.127 198.757 176.238 C 200.157 176.371 201.165 176.329 202.284 177.198 C 204.178 178.668 205.928 180.325 207.834 181.785 C 209.731 183.242 211.739 183.549 214.105 183.624 C 217.015 183.716 218.583 182.545 220.904 180.983 C 222.97 179.592 224.996 178.145 227.184 176.947 C 229.21 175.838 231.019 174.757 233.258 174.159 C 234.398 173.855 235.531 173.503 236.696 173.313 C 239.702 172.832 243.026 173.287 244.64 173.656 C 246.253 174.025 247.13 174.369 248.375 174.732 C 250.639 175.393 252.897 176.076 255.16 176.738 C 257.623 177.459 260.089 178.169 262.553 178.884 C 263.612 179.191 264.688 179.587 265.778 179.757 C 266.881 179.93 268 179.694 269.103 179.585 C 271.49 179.348 273.877 179.104 276.265 178.87 C 276.839 178.814 278.543 178.325 279.011 178.837 C 279.44 179.307 279.169 181.645 279.192 182.314 C 279.267 184.571 279.459 186.822 279.869 189.044 C 280.265 191.192 281.734 193.219 282.754 195.138 L 282.753 195.14 Z" stroke="#272727" stroke-width="1.2" stroke-miterlimit="10" stroke-dasharray="" stroke-dashoffset="0" style="" fill="#5ea82d">
          <title>umhang-form</title>
        </path>
        <g style="">
          <title>umhang-schatten</title>
          <path d="M 235.365 173.412 C 234.694 172.622 248.303 173.311 260.093 178.265 C 261.525 178.867 249.936 179.327 247.533 179.27 C 244.667 179.202 239.957 177.039 239.695 176.93 C 238.083 176.257 236.891 175.095 235.067 175.016 C 233.285 174.939 231.118 175.12 229.394 175.564 C 231.241 174.504 233.206 173.791 235.365 173.412 Z" style="fill-opacity: 0.48;">
            <title>schatten-umhang-2</title>
          </path>
          <path d="M 268.577 192.766 C 269.444 190.573 281.624 179.207 280.847 179.958 C 279.117 181.628 278.502 183.631 278.234 185.99 C 277.934 188.624 277.875 191.278 277.54 193.91 C 277.346 195.435 277.373 195.729 278.716 196.583 C 279.142 196.855 279.564 197.253 280.076 197.335 C 280.658 197.428 281.281 196.93 281.906 197.006 C 281.659 198.225 281.092 199.354 280.1 200.133 C 278.98 201.012 278.51 200.424 277.26 200.085 C 275.539 199.616 274.803 200.371 273.65 201.665 C 272.864 202.548 272.277 203.745 270.968 203.884 C 269.851 204.001 268.465 203.448 267.301 203.35 C 266.088 203.248 264.286 202.408 263.294 203.122 C 261.345 204.523 267.795 194.745 268.577 192.766 Z M 276.419 187.067 C 276.055 187.053 275.951 187.261 275.797 187.393 C 273.746 189.152 270.415 190.854 269.296 193.364 C 268.69 194.721 267.706 196.048 267.281 197.472 C 266.912 198.708 267.417 199.131 268.575 199.606 C 271.419 200.772 273.867 198.239 275.254 195.97 C 276.838 193.381 276.821 189.975 276.419 187.067 Z" style="fill-opacity: 0.48;">
            <title>schatten-umhang-3</title>
          </path>
          <path d="M 192.199 185.461 C 192.853 184.524 193.296 183.459 194.466 183.15 C 195.368 182.911 196.775 182.901 197.674 183.12 C 199.794 183.636 201.844 185.063 203.484 186.444 C 205.453 188.103 207.345 189.866 209.119 191.73 C 210.568 193.255 212.774 194.895 214.949 195.079 C 217.285 195.277 218.641 193.625 219.957 192.006 C 221.57 190.02 223.223 188.077 224.884 186.131 C 225.748 185.12 226.746 183.993 227.67 183.025 C 227.781 182.909 228.104 176.342 229.831 175.831 C 231.718 175.273 229.156 176.447 230.257 175.815 C 231.184 175.283 230.367 174.71 231.418 174.87 C 234.393 175.322 235.158 177.377 236.182 177.377 C 236.391 177.689 235.82 178.185 235.935 178.59 C 236.088 179.128 237.013 179.662 233.363 181.015 C 232.064 181.497 230.288 182.399 229.272 183.336 C 228.053 184.461 227.202 186.134 226.256 187.483 C 225.256 188.906 223.817 190.351 223.261 192.015 C 222.661 193.814 221.451 198.825 221.22 198.183 C 220.812 197.049 217.421 196.642 216.363 196.307 C 214.4 195.686 212.032 194.641 210.309 193.516 C 209.499 192.986 208.735 192.282 207.98 191.679 C 207.256 191.1 206.292 189.615 205.348 189.479 C 205.701 190.486 206.773 190.838 207.275 191.691 C 207.002 191.932 203.623 188.448 203.019 188.131 C 200.975 187.062 199.02 188.077 196.911 188.637 C 196.061 188.055 193.375 186.659 192.201 187.22 C 192.201 186.632 192.201 186.044 192.201 185.457 L 192.199 185.461 Z M 204.389 188.56 C 203.744 187.918 202.943 187.644 202.074 187.538 C 202.735 188.135 203.595 188.261 204.389 188.56 Z" style="fill-opacity: 0.48;">
            <title>schatten-umhang</title>
          </path>
        </g>
        <path d="M 282.753 195.14 L 282.753 195.257 C 281.572 196.909 281.304 200.652 278.647 200.662 C 277.042 200.668 276.31 199.295 274.939 200.561 C 273.741 201.669 272.606 202.859 271.442 204.005 L 270.975 204.005 C 269.31 203.469 267.321 203.437 265.587 203.18 C 263.978 202.942 262.367 202.757 260.751 202.578 C 257.171 202.182 253.601 201.736 250.028 201.292 C 244.016 200.545 237.996 199.851 231.989 199.065 C 225.984 198.28 219.905 198.058 214.291 195.597 C 212.967 195.016 211.572 194.404 210.321 193.676 C 209.122 192.98 208.114 191.899 207.077 190.989 C 205.953 190.002 204.812 188.715 203.497 187.986 C 202.409 187.383 201.3 187.703 200.132 187.873 C 198.807 188.065 197.53 188.555 196.231 188.207 C 195.112 187.907 193.702 187.824 192.679 187.279 C 191.553 186.678 190.869 185.213 190.374 184.095 C 189.455 181.451 190.7 179.246 192.174 177.773 C 192.94 177.071 193.69 176.031 194.739 175.854 C 195.897 175.66 197.595 176.127 198.757 176.238 C 200.157 176.371 201.165 176.329 202.284 177.198 C 204.178 178.668 205.928 180.325 207.834 181.785 C 209.731 183.242 211.739 183.549 214.105 183.624 C 217.015 183.716 218.583 182.545 220.904 180.983 C 222.97 179.592 224.996 178.145 227.184 176.947 C 229.21 175.838 231.019 174.757 233.258 174.159 C 234.398 173.855 235.531 173.503 236.696 173.313 C 239.702 172.832 243.026 173.287 244.64 173.656 C 246.253 174.025 247.13 174.369 248.375 174.732 C 250.639 175.393 252.897 176.076 255.16 176.738 C 257.623 177.459 260.089 178.169 262.553 178.884 C 263.612 179.191 264.688 179.587 265.778 179.757 C 266.881 179.93 268 179.694 269.103 179.585 C 271.49 179.348 273.877 179.104 276.265 178.87 C 276.839 178.814 278.543 178.325 279.011 178.837 C 279.44 179.307 279.169 181.645 279.192 182.314 C 279.267 184.571 279.459 186.822 279.869 189.044 C 280.265 191.192 281.734 193.219 282.754 195.138 L 282.753 195.14 Z" stroke="#272727" stroke-width="1.2" stroke-miterlimit="10" stroke-dasharray="" stroke-dashoffset="0" style="fill: none;">
          <title>umhang-umriss</title>
        </path>
        <g style="" transform="matrix(1, 0, 0, 1, 0.000002, 0)">
          <title>halsband2u</title>
          <path d="M 248.554 182.386 C 248.379 181.323 246.986 179.337 247.34 178.835 C 251.112 179.361 255.966 179.194 257.531 179.156 C 258.974 179.09 259.558 179.03 260.729 178.864 C 266.233 178.285 267.786 177.525 267.951 177.501 C 268.44 177.428 267.131 179.462 266.922 179.761 C 266.429 180.466 265.942 181.129 265.137 181.478 C 264.328 181.828 263.489 182.009 262.635 182.228 C 262.223 182.334 261.811 182.44 261.4 182.549 C 258.44 183.09 255.714 182.994 252.785 182.805 C 252.316 182.784 251.854 182.718 251.389 182.669 C 250.493 182.574 249.451 182.481 248.554 182.386 Z" stroke-width="1.2" style="stroke-linejoin: bevel; stroke-linecap: square; fill: rgb(94, 168, 45); stroke: rgb(39, 39, 39);" stroke-miterlimit="0">
            <title>halsband</title>
          </path>
          <path d="M 248.422 181.79 C 248.261 181.77 247.175 181.661 246.22 181.439 C 244.765 181.1 244.494 178.911 245.066 178.992 C 246.358 179.176 246.91 179.221 247.566 179.283 C 251.653 179.669 255.944 179.786 257.509 179.748 C 258.952 179.682 259.552 179.628 260.723 179.462 C 266.1 178.784 266.587 178.471 266.878 178.401 C 267.376 178.282 266.181 179.827 265.935 180.096 C 265.283 180.808 265.207 180.842 264.402 181.118 C 263.597 181.394 263.489 181.411 262.635 181.63 C 262.223 181.736 261.811 181.842 261.4 181.951 C 258.44 182.492 255.714 182.396 252.785 182.207 C 252.316 182.186 251.854 182.12 251.389 182.071 C 250.493 181.976 249.583 181.937 248.422 181.79 Z" stroke-width="1.2" stroke-miterlimit="0" style="fill: rgb(94, 168, 45);">
            <title>halsband</title>
          </path>
        </g>
      </g>
      <g style="pointer-events: none;" transform="matrix(1, 0, 0, 1, 0.000001, 0)">
        <title>unterkoerper2</title>
        <path d="M 219.355 230.157 L 217.093 230.273 C 217.502 228.827 217.866 227.809 219.016 226.765 C 219.894 225.967 221.396 225.505 222.065 224.59 C 222.759 223.641 223.061 221.764 223.462 220.626 C 223.985 219.143 224.341 217.623 224.76 216.109 C 224.987 215.288 226.355 212.551 225.998 211.805 C 225.653 211.082 224.204 212.387 223.804 212.606 C 221.69 213.756 218.341 215.005 216.017 214.302 C 214.588 213.869 212.983 213.553 211.765 212.64 C 210.713 211.852 210.073 210.684 209.432 209.565 C 207.974 207.016 206.773 204.406 205.685 201.688 C 204.912 199.758 203.35 196.647 201.351 195.684 C 200.285 195.17 199.099 195.636 198.004 195.026 C 196.769 194.337 196.105 193.232 195.924 192.036 L 195.924 191.282 C 195.916 191.13 195.978 189.052 197.212 188.248 C 198.1 187.668 199.321 186.903 200.423 187.027 C 201.511 187.149 203.449 187.856 204.384 188.424 C 205.302 188.982 205.596 190.042 206.025 190.991 C 208.165 195.732 210.626 200.307 213.168 204.825 C 214.133 206.541 215.178 208.454 217.164 209.151 C 219.139 209.844 221.05 209.024 222.664 207.979 C 223.605 207.371 224.368 207.105 223.266 206.225 C 222.624 205.713 222.325 205.482 221.925 204.757 C 221.357 203.732 220.81 203.111 220.799 201.88 C 220.791 200.876 221.008 199.881 221.18 198.897 C 221.425 197.49 221.69 196.083 221.895 194.67 C 222.023 193.796 222.016 192.87 222.467 192.084 C 223.519 190.249 225.029 188.537 226.257 186.801 C 227.074 185.645 227.873 184.387 228.798 183.316 C 229.392 182.629 230.045 182.381 230.832 181.936 C 232.559 180.956 234.277 179.909 235.956 178.829 C 236.668 178.371 237.373 177.657 237.949 176.987 C 238.159 176.742 238.408 176.395 238.502 176.26 C 245.76 178.106 248.648 178.031 252.272 178.28 C 255.58 178.508 257.466 178.545 264.013 177.845 C 264.733 177.768 267.709 177.516 268.097 176.575 C 270.028 171.895 275.15 159.238 275.31 159.137 C 276.031 158.682 277.061 156.974 277.357 156.266 C 277.751 155.326 277.827 154.172 278.284 153.276 C 278.674 152.512 279.308 152.422 280.102 152.125 C 281.172 151.726 282.296 151.135 283.405 150.876 C 284.548 150.61 285.148 151.378 286.091 152.033 C 287.521 153.027 289.595 154.09 289.941 155.976 L 289.941 158.112 C 289.749 159.818 289.55 161.525 289.34 163.229 C 289.171 164.605 289.273 166.63 288.746 167.895 C 288.129 169.378 286.841 170.843 286.014 172.24 C 285.177 173.656 284.362 175.084 283.527 176.5 C 282.087 178.942 279.825 181.087 277.836 183.098 C 275.947 185.009 274.122 186.989 272.248 188.9 C 271.275 189.893 270.39 190.596 269.717 191.856 C 269.032 193.136 268.486 194.535 267.909 195.868 C 266.824 198.38 265.03 200.494 263.44 202.705 C 262.6 203.871 261.753 205.043 260.938 206.226 C 259.993 207.598 261.05 207.628 262.281 208.255 C 263.601 208.927 264.868 209.696 266.207 210.331 C 267.523 210.955 267.764 211.46 268.567 212.646 C 269.434 213.927 270.274 215.235 271.153 216.508 C 272.03 217.777 272.21 218.36 271.63 219.849 C 271.143 221.099 270.419 222.238 269.512 223.225 C 268.733 224.072 267.655 224.674 266.938 225.565 C 267.354 226.583 270.098 226.186 270.961 226.696 C 271.665 227.113 272.551 229.155 272.386 230.001 C 269.242 230.001 266.111 229.94 262.967 229.843 C 261.362 229.793 259.763 229.805 258.157 229.815 C 256.809 229.823 254.959 230.121 253.714 229.589 C 254.388 228.617 255.022 227.639 255.726 226.688 C 256.458 225.703 256.473 224.995 256.656 223.818 C 256.801 222.88 257.256 222.017 256.679 221.197 C 256.107 220.382 254.784 219.709 253.976 219.114 C 253.103 218.47 252.25 217.749 251.346 217.151 C 250.351 216.492 249.69 216.609 248.539 216.724 C 245.993 216.978 243.441 217.307 240.885 217.445 C 239.88 217.5 238.572 217.308 237.65 217.827 C 236.891 218.254 236.414 219.128 235.843 219.769 C 234.191 221.622 232.459 223.404 230.842 225.286 C 229.678 226.641 228.549 229.176 226.714 229.551 C 225.447 229.81 224.046 229.787 222.756 229.908 C 221.807 229.996 219.355 230.157 219.355 230.157 Z" stroke-width="1.2" stroke-miterlimit="10" stroke-dasharray="" stroke-dashoffset="0" style="fill: rgb(171, 171, 171);">
          <title>koerper-grund-umriss</title>
        </path>
        <path d="M 243.267 216.73 C 243.25 216.671 243.563 216.45 243.718 216.338 C 244.71 215.618 245.681 214.867 246.663 214.13 C 246.734 214.076 246.808 214.025 246.882 213.976 C 247.017 213.886 247.018 213.855 246.866 213.787 C 246.717 213.721 246.56 213.666 246.406 213.611 C 245.278 213.212 244.148 212.813 243.02 212.416 C 242.869 212.363 242.718 212.315 242.566 212.268 C 242.391 212.214 242.289 212.109 242.238 211.922 C 241.572 209.4 240.896 206.881 240.225 204.36 C 240.083 203.827 239.943 203.294 239.801 202.761 C 239.736 202.514 239.717 202.263 239.705 202.009 C 239.67 201.235 239.643 200.462 239.64 199.686 C 239.638 198.978 239.545 198.273 239.519 197.564 C 239.497 196.988 239.508 196.412 239.498 195.836 C 239.495 195.577 239.665 195.382 239.781 195.172 C 240.246 194.34 240.723 193.514 241.195 192.685 C 241.728 191.749 242.259 190.811 242.79 189.872 C 243.235 189.086 243.679 188.299 244.123 187.512 C 244.213 187.352 244.233 187.341 244.382 187.432 C 245.054 187.838 245.723 188.248 246.393 188.656 C 246.603 188.783 246.622 188.781 246.715 188.56 C 247.211 187.395 247.704 186.227 248.197 185.06 C 248.745 183.766 249.283 182.467 249.843 181.177 C 250.306 180.113 267.992 177.507 267.886 177.544 C 266.998 177.849 267.257 177.682 266.688 178.394 C 266.261 178.929 265.792 179.412 265.243 179.821 C 264.774 180.17 264.325 180.55 263.865 180.911 C 263.775 180.982 263.787 181.046 263.835 181.128 C 264.059 181.521 264.286 181.912 264.504 182.307 C 264.974 183.154 265.463 183.99 265.909 184.85 C 266.618 186.217 267.341 187.577 268.071 188.934 C 268.196 189.166 268.205 189.39 268.171 189.635 C 268.032 190.663 267.894 191.692 267.76 192.72 C 267.677 193.345 267.6 193.97 267.521 194.595 C 267.501 194.753 267.427 194.887 267.343 195.017 C 266.31 196.64 265.275 198.26 264.242 199.881 C 263.126 201.632 262.011 203.384 260.897 205.137 C 260.659 205.51 260.416 205.88 260.191 206.259 C 260.026 206.537 259.756 206.694 259.519 206.884 C 258.39 207.795 257.262 208.706 256.122 209.601 C 255.496 210.091 254.848 210.551 254.209 211.025 C 253.491 211.557 252.773 212.09 252.054 212.621 C 251.302 213.176 250.539 213.715 249.804 214.29 C 249.446 214.57 249.034 214.697 248.625 214.844 C 247.157 215.371 245.686 215.891 244.218 216.417 C 243.911 216.527 243.278 216.752 243.267 216.73 Z" fill="#e1e1e1" stroke="none" stroke-width="0" stroke-miterlimit="10" stroke-dasharray="" stroke-dashoffset="0" style="">
          <title>bauch</title>
        </path>
        <g style="">
          <title>unterkoerper-schatten</title>
          <path d="M 221.22 198.183 C 221.374 195.758 221.474 193.876 221.89 192.722 C 222.299 191.588 223.795 189.365 225.456 187.419 C 227.183 185.397 226.805 183.823 229.143 182.543 C 230.649 181.719 232.689 179.756 233.713 179.756 C 233.922 180.068 238.055 176.141 238.169 176.546 C 238.322 177.084 239.477 177.318 239.902 177.466 C 241.292 177.95 242.433 178.486 244.119 178.787 C 247.459 179.384 251.053 179.193 242.757 180.078 C 240.489 180.32 240.603 180.316 235.823 179.543 C 234.455 179.322 230.288 182.399 229.272 183.336 C 228.053 184.46 227.202 186.134 226.256 187.483 C 225.255 188.906 223.817 190.351 223.261 192.014 C 222.661 193.814 222.687 196.001 222.669 197.88 C 222.656 199.369 222.766 201.49 223.814 202.684 C 225.004 204.04 227.114 204.29 228.751 203.84 C 230.827 203.27 231.507 202.132 231.599 199.974 C 231.638 199.047 231.238 198.077 231.515 197.185 C 231.773 196.353 232.541 195.49 233.138 194.895 C 234.48 193.558 236.209 192.408 237.802 191.397 C 238.663 190.85 239.496 190.295 240.252 189.606 C 241.008 188.919 241.683 187.759 242.587 187.277 C 243.229 188.009 233.15 195.835 232.731 197.414 C 232.157 199.57 233.359 202.426 232.263 204.444 C 231.32 206.181 229.058 206.641 227.727 207.898 C 226.911 208.669 226.609 208.803 226.539 209.963 C 226.448 211.447 226.529 211.195 225.257 211.885 C 223.242 212.977 221.024 214.108 218.734 214.474 C 216.529 214.828 214.058 214.116 212.181 212.948 C 211.244 212.365 210.463 211.567 209.901 210.614 C 209.694 210.263 208.282 207.848 208.507 207.507 C 210.341 209.09 211.15 210.758 213.592 211.598 C 215.91 212.396 217.624 212.775 220.02 211.922 C 221.505 211.394 225.231 209.668 225.046 207.712 C 224.948 206.68 224.211 206.875 223.439 206.423 C 222.549 205.902 221.749 204.937 221.324 204.018 C 220.848 202.992 220.797 201.887 220.886 200.775 C 220.94 200.111 221.177 198.864 221.22 198.183 Z" style="fill-opacity: 0.48;"/>
          <path d="M 196.911 188.637 C 196.061 188.055 199.39 186.089 201.435 186.733 C 204.999 187.855 205.178 188.226 205.981 189.562 C 206.179 189.952 206.391 190.48 206.621 190.976 C 206.979 191.744 207.14 192.593 206.708 192.213 C 206.434 192.454 203.352 189.104 202.749 188.788 C 200.705 187.719 199.02 188.077 196.911 188.637 Z" style="fill-opacity: 0.48;"/>
          <path d="M 286.49 160.905 C 285.197 161.661 283.335 163.637 281.781 163.518 C 280.947 163.455 279.888 162.833 279.105 162.512 C 277.95 162.038 277.766 161.343 277.345 160.183 C 276.75 158.544 277.184 156.326 277.778 154.727 C 277.933 154.308 278.285 153.156 278.503 152.873 C 278.919 152.329 280.355 151.975 280.964 151.773 C 280.739 152.406 280.218 152.665 279.778 153.114 C 279.19 153.713 279.116 154.197 278.956 155.017 C 278.68 156.435 278.011 158.494 278.683 159.906 C 279.084 160.744 280.852 161.563 281.701 161.74 C 283.103 162.032 285.132 161.004 286.491 160.652 L 286.491 160.905 L 286.49 160.905 Z" style="fill-opacity: 0.48;"/>
          <path d="M 217.285 230.292 C 217.414 229.792 217.248 229.225 217.655 228.654 C 217.846 229.266 218.006 229.78 218.168 230.292 L 217.286 230.292 L 217.285 230.292 Z" style="fill-opacity: 0.48;"/>
          <path d="M 270.598 183.855 C 270.979 185.642 270.843 187.441 270.931 189.377 C 273.812 187.565 275.741 184.606 278.097 182.185 C 279.262 180.986 280.484 179.842 281.61 178.605 C 282.633 177.48 283.327 175.596 284.526 174.7 C 284.666 175.291 283.329 177.08 283.006 177.569 C 282.407 178.473 281.624 179.207 280.848 179.958 C 279.117 181.628 272.811 188.916 270.351 191.456 C 269.486 192.349 268.888 194.815 267.556 197.255 C 266.048 200.015 263.821 202.743 263.295 203.121 C 261.345 204.523 261.041 208.569 257.843 208.081 C 261.501 205.916 263.333 201.55 265.668 198.185 C 266.88 196.439 267.795 194.745 268.578 192.766 C 269.444 190.573 269.669 188.339 270.181 186.056 C 270.344 185.328 270.459 184.588 270.596 183.855 L 270.598 183.855 Z" style="fill-opacity: 0.48;"/>
          <path d="M 237.672 217.642 C 237.913 217.105 240.695 217.138 241.35 217 C 242.91 216.669 244.423 216.163 245.939 215.671 C 247.181 215.267 248.537 215.078 249.678 214.44 C 250.817 213.804 251.744 212.824 253.027 212.444 C 253.35 212.806 252.078 214.02 251.841 214.361 C 251.079 215.459 251.614 215.737 252.453 216.714 C 253.905 218.406 255.705 219.722 257.158 221.4 C 254.228 220.1 252.612 216.919 249.059 216.936 C 245.463 216.954 241.788 217.474 238.196 217.72 C 238.025 217.732 237.827 217.833 237.672 217.64 L 237.672 217.642 Z" style="fill-opacity: 0.48;"/>
          <path d="M 271.881 218.308 C 272.133 221.035 269.828 223.248 267.939 224.827 C 267.046 225.573 266.659 225.96 265.468 226.021 C 264.793 226.056 264.153 226.033 263.504 226.271 C 263.04 226.441 262.603 226.934 262.098 226.793 C 264.909 224.275 269.781 223.767 271.304 219.75 C 271.472 219.306 271.45 218.794 271.88 218.311 L 271.881 218.308 Z" style="fill-opacity: 0.48;"/>
          <path d="M 227.918 226.663 C 225.229 224.934 222.576 225.565 219.86 226.21 C 220.621 225.748 221.592 225.394 222.089 224.63 C 222.597 223.85 222.654 222.845 223.137 222.039 C 223.413 222.811 222.766 224.251 223.481 224.765 C 223.836 225.021 224.53 224.802 224.957 224.853 C 225.672 224.937 226.331 225.241 227.012 225.454 C 227.501 225.605 227.747 226.028 227.918 226.664 L 227.918 226.663 Z" style="fill-opacity: 0.48;"/>
          <path d="M 197.519 194.304 C 199.63 195.458 201.397 195.149 202.859 193.354 C 203.25 193.97 202.185 194.836 202.439 195.717 C 202.731 196.725 203.874 197.878 204.475 198.737 C 203.704 198.896 202.668 196.97 202.209 196.452 C 201.265 195.385 200.492 195.601 199.117 195.572 C 198.465 195.559 197.763 195.044 197.519 194.304 Z" style="fill-opacity: 0.48;"/>
          <path d="M 256.38 226.199 C 256.539 226.83 255.779 228.484 255.476 229.06 C 255.107 229.763 254.391 230.173 253.515 229.761 C 254.574 228.621 255.327 227.3 256.38 226.199 Z" style="fill-opacity: 0.48;"/>
          <path d="M 265.792 180.439 C 265.486 180.637 263.564 181.46 263.98 180.913 C 264.775 179.869 264.982 179.705 265.18 178.307 C 265.429 178.115 267.271 177.174 268.544 176.444 C 269.026 176.169 268.023 178.062 267.412 178.818 C 266.811 179.562 266.753 179.817 265.792 180.439 Z" style="fill-opacity: 0.48;"/>
        </g>
        <path d="M 261.551 181.014 C 261.594 181.079 261.668 181.104 261.728 181.147 C 261.877 181.251 261.883 181.278 261.767 181.412 C 261.566 181.645 261.359 181.874 261.16 182.109 C 260.261 183.163 259.366 184.223 258.463 185.274 C 258.193 185.587 257.921 185.895 257.804 186.305 C 257.715 186.62 257.612 186.932 257.517 187.245 C 257.321 187.886 257.124 188.527 256.934 189.168 C 256.892 189.308 256.821 189.442 256.831 189.595 C 256.936 189.588 258.729 188.026 259.537 187.284 C 260.407 186.483 261.306 185.713 262.222 184.962 C 262.283 185.036 262.246 185.08 262.233 185.124 C 261.986 185.951 261.737 186.778 261.489 187.606 C 261.123 188.827 260.758 190.049 260.393 191.27 C 260.121 192.183 259.842 193.094 259.579 194.009 C 259.322 194.91 259.124 195.826 258.932 196.743 C 258.827 197.248 258.713 197.751 258.602 198.255 C 258.582 198.345 258.529 198.415 258.457 198.474 C 257.416 199.351 256.374 200.227 255.334 201.105 C 254.845 201.517 254.158 202.145 253.949 202.36 C 253.542 202.783 253.13 203.156 252.726 203.581 C 252.72 203.587 252.549 203.752 252.447 204.24 C 252.295 204.87 252.104 205.756 251.992 206.196 C 251.818 206.959 251.845 206.982 251.733 207.049 C 251.796 206.626 252.049 205.352 252.103 204.77 C 252.137 204.397 252.165 204.182 252.196 204.025 C 252.238 203.76 252.301 203.587 252.371 203.458 C 252.422 203.298 254.646 200.282 255.934 198.849 C 256.208 198.544 256.528 198.222 256.822 197.89 C 257.068 197.613 257.274 197.407 257.523 197.049 C 257.674 196.831 257.713 196.63 257.748 196.406 C 257.852 195.765 257.945 195.123 258.042 194.482 C 258.165 193.668 258.286 192.856 258.408 192.042 C 258.494 191.469 258.579 190.896 258.666 190.323 C 258.675 190.261 258.684 190.197 258.625 190.162 C 258.568 190.129 258.525 190.185 258.483 190.217 C 257.367 191.079 256.254 191.947 255.134 192.804 C 254.774 193.08 254.421 193.361 254.083 193.661 C 254.062 193.679 254.044 193.71 253.992 193.693 C 254.047 193.471 254.098 193.247 254.159 193.025 C 254.398 192.165 254.619 191.3 254.936 190.463 C 255.212 189.729 255.459 188.985 255.72 188.245 C 256.025 187.384 256.329 186.524 256.633 185.664 C 256.664 185.575 256.702 185.488 256.726 185.398 C 256.829 184.999 257.078 184.72 257.394 184.464 C 258.691 183.411 259.972 182.341 261.257 181.276 C 261.343 181.205 261.45 181.146 261.46 181.014 L 261.549 181.014 L 261.551 181.014 Z" fill="#b6d597" stroke="#ffffff" stroke-width="0" stroke-miterlimit="10" stroke-dasharray="" stroke-dashoffset="0" style="">
          <title>blitz</title>
        </path>
        <path d="M 219.355 230.157 L 217.093 230.273 C 217.502 228.827 217.866 227.809 219.016 226.765 C 219.894 225.967 221.396 225.505 222.065 224.59 C 222.759 223.641 223.061 221.764 223.462 220.626 C 223.985 219.143 224.341 217.623 224.76 216.109 C 224.987 215.288 226.355 212.551 225.998 211.805 C 225.653 211.082 224.204 212.387 223.804 212.606 C 221.69 213.756 218.341 215.005 216.017 214.302 C 214.588 213.869 212.983 213.553 211.765 212.64 C 210.713 211.852 210.073 210.684 209.432 209.565 C 207.974 207.016 206.773 204.406 205.685 201.688 C 204.912 199.758 203.35 196.647 201.351 195.684 C 200.285 195.17 199.099 195.636 198.004 195.026 C 196.769 194.337 196.105 193.232 195.924 192.036 L 195.924 191.282 C 195.916 191.13 195.978 189.052 197.212 188.248 C 198.1 187.668 199.321 186.903 200.423 187.027 C 201.511 187.149 203.449 187.856 204.384 188.424 C 205.302 188.982 205.596 190.042 206.025 190.991 C 208.165 195.732 210.626 200.307 213.168 204.825 C 214.133 206.541 215.178 208.454 217.164 209.151 C 219.139 209.844 221.05 209.024 222.664 207.979 C 223.605 207.371 224.368 207.105 223.266 206.225 C 222.624 205.713 222.325 205.482 221.925 204.757 C 221.357 203.732 220.81 203.111 220.799 201.88 C 220.791 200.876 221.008 199.881 221.18 198.897 C 221.425 197.49 221.69 196.083 221.895 194.67 C 222.023 193.796 222.016 192.87 222.467 192.084 C 223.519 190.249 225.029 188.537 226.257 186.801 C 227.074 185.645 227.873 184.387 228.798 183.316 C 229.392 182.629 230.045 182.381 230.832 181.936 C 232.559 180.956 234.277 179.909 235.956 178.829 C 236.668 178.371 237.373 177.657 237.949 176.987 C 238.159 176.742 238.408 176.395 238.502 176.26 C 245.76 178.106 248.648 178.031 252.272 178.28 C 255.58 178.508 257.466 178.545 264.013 177.845 C 264.733 177.768 267.709 177.516 268.097 176.575 C 270.028 171.895 275.15 159.238 275.31 159.137 C 276.031 158.682 277.061 156.974 277.357 156.266 C 277.751 155.326 277.827 154.172 278.284 153.276 C 278.674 152.512 279.308 152.422 280.102 152.125 C 281.172 151.726 282.296 151.135 283.405 150.876 C 284.548 150.61 285.148 151.378 286.091 152.033 C 287.521 153.027 289.595 154.09 289.941 155.976 L 289.941 158.112 C 289.749 159.818 289.55 161.525 289.34 163.229 C 289.171 164.605 289.273 166.63 288.746 167.895 C 288.129 169.378 286.841 170.843 286.014 172.24 C 285.177 173.656 284.362 175.084 283.527 176.5 C 282.087 178.942 279.825 181.087 277.836 183.098 C 275.947 185.009 274.122 186.989 272.248 188.9 C 271.275 189.893 270.39 190.596 269.717 191.856 C 269.032 193.136 268.486 194.535 267.909 195.868 C 266.824 198.38 265.03 200.494 263.44 202.705 C 262.6 203.871 261.753 205.043 260.938 206.226 C 259.993 207.598 261.05 207.628 262.281 208.255 C 263.601 208.927 264.868 209.696 266.207 210.331 C 267.523 210.955 267.764 211.46 268.567 212.646 C 269.434 213.927 270.274 215.235 271.153 216.508 C 272.03 217.777 272.21 218.36 271.63 219.849 C 271.143 221.099 270.419 222.238 269.512 223.225 C 268.733 224.072 267.655 224.674 266.938 225.565 C 267.354 226.583 270.098 226.186 270.961 226.696 C 271.665 227.113 272.551 229.155 272.386 230.001 C 269.242 230.001 266.111 229.94 262.967 229.843 C 261.362 229.793 259.763 229.805 258.157 229.815 C 256.809 229.823 254.959 230.121 253.714 229.589 C 254.388 228.617 255.022 227.639 255.726 226.688 C 256.458 225.703 256.473 224.995 256.656 223.818 C 256.801 222.88 257.256 222.017 256.679 221.197 C 256.107 220.382 254.784 219.709 253.976 219.114 C 253.103 218.47 252.25 217.749 251.346 217.151 C 250.351 216.492 249.69 216.609 248.539 216.724 C 245.993 216.978 243.441 217.307 240.885 217.445 C 239.88 217.5 238.572 217.308 237.65 217.827 C 236.891 218.254 236.414 219.128 235.843 219.769 C 234.191 221.622 232.459 223.404 230.842 225.286 C 229.678 226.641 228.549 229.176 226.714 229.551 C 225.447 229.81 224.046 229.787 222.756 229.908 C 221.807 229.996 219.355 230.157 219.355 230.157 Z" stroke-width="1.2" stroke-miterlimit="10" stroke-dasharray="" stroke-dashoffset="0" style="stroke: rgb(39, 39, 39); fill: none;">
          <title>unterkoerper-umriss</title>
        </path>
        <g style="">
          <title>halsband</title>
          <path d="M 238.131 179.855 C 237.409 179.433 236.675 179.005 235.935 178.208 C 235.66 177.912 235.826 177.741 236.576 176.687 C 237.215 175.789 237.212 174.984 237.553 175.317 C 238.231 175.977 238.794 176.548 239.403 176.885 C 239.88 177.149 241.239 177.616 243.203 178.038 C 244.845 178.391 246.736 178.591 247.405 178.684 C 251.177 179.21 255.966 179.194 257.531 179.156 C 258.974 179.09 259.558 179.03 260.729 178.864 C 266.233 178.285 267.786 177.525 267.951 177.501 C 268.44 177.428 267.131 179.462 266.922 179.761 C 266.429 180.466 265.942 181.129 265.137 181.478 C 264.328 181.828 263.489 182.009 262.635 182.228 C 262.223 182.334 261.811 182.44 261.4 182.549 C 258.44 183.09 255.714 182.994 252.785 182.805 C 252.316 182.784 251.854 182.718 251.389 182.669 C 250.493 182.574 249.594 182.51 248.697 182.415 C 246.881 182.226 245.215 182.039 243.298 181.621 C 241.544 181.238 240.096 181.003 238.131 179.855 Z" stroke-width="1.2" stroke-miterlimit="0" style="stroke: rgb(39, 39, 39); fill: rgb(111, 165, 65);">
            <title>halsband-farbe</title>
          </path>
          <g style="">
            <title>halsband-schatten</title>
            <path d="M 238.411 179.957 C 237.934 179.898 235.311 178.682 235.944 178.143 C 237.029 177.242 238.111 176.341 238.169 176.546 C 238.322 177.084 239.477 177.318 239.902 177.466 C 241.292 177.95 242.433 178.486 244.119 178.787 C 247.459 179.384 251.053 179.193 242.757 180.078 C 241.005 180.265 240.674 180.305 238.411 179.957 Z" style="fill-opacity: 0.48;"/>
            <path d="M 265.792 180.439 C 265.249 180.778 263.581 181.472 263.98 180.913 C 264.875 179.658 264.982 179.705 265.18 178.307 C 265.345 178.18 266.208 177.724 267.142 177.22 C 267.891 176.723 267.556 179.01 266.999 179.503 C 266.627 179.859 266.231 180.165 265.792 180.439 Z" style="fill-opacity: 0.48;"/>
          </g>
          <path d="M 238.131 179.855 C 237.409 179.433 236.675 179.005 235.935 178.208 C 235.66 177.912 235.826 177.741 236.576 176.687 C 237.215 175.789 237.212 174.984 237.553 175.317 C 238.231 175.977 238.794 176.548 239.403 176.885 C 239.88 177.149 241.239 177.616 243.203 178.038 C 244.845 178.391 246.736 178.591 247.405 178.684 C 251.177 179.21 255.966 179.194 257.531 179.156 C 258.974 179.09 259.558 179.03 260.729 178.864 C 266.233 178.285 267.786 177.525 267.951 177.501 C 268.44 177.428 267.131 179.462 266.922 179.761 C 266.429 180.466 265.942 181.129 265.137 181.478 C 264.328 181.828 263.489 182.009 262.635 182.228 C 262.223 182.334 261.811 182.44 261.4 182.549 C 258.44 183.09 255.714 182.994 252.785 182.805 C 252.316 182.784 251.854 182.718 251.389 182.669 C 250.493 182.574 249.594 182.51 248.697 182.415 C 246.881 182.226 245.215 182.039 243.298 181.621 C 241.544 181.238 240.096 181.003 238.131 179.855 Z" stroke-width="1.2" stroke-miterlimit="0" style="fill: none; stroke: rgb(39, 39, 39);">
            <title>halsband-umriss</title>
          </path>
        </g>
      </g>
      <g style="pointer-events: none;">
        <title>kopf</title>
        <path d="M 268.503 177.038 C 268.291 177.266 267.997 177.494 267.711 177.607 C 265.945 178.304 259.942 179.36 254.998 179.239 C 245.145 178.997 241.895 177.812 240.558 177.394 C 238.862 176.864 238.308 176.08 238.151 175.907 C 237.561 175.291 236.889 174.767 236.302 174.138 C 235.696 173.488 234.969 172.909 234.433 172.214 C 233.768 171.351 233.344 170.181 232.813 169.229 C 232.319 168.343 231.282 167.22 231.358 166.167 C 231.416 165.348 232.021 164.387 232.461 163.542 C 232.707 162.521 232.473 161.851 233.405 160.837 C 233.786 159.209 233.916 157.537 233.988 155.841 C 234.034 154.736 234.215 153.505 233.807 152.467 C 233.407 151.45 232.676 150.59 232.319 149.528 C 231.68 147.622 231.912 145.417 231.832 143.43 C 231.725 140.751 231.632 138.073 231.552 135.392 C 231.523 134.408 231.479 133.455 231.208 132.499 C 230.953 131.6 230.2 130.646 230.177 129.707 L 230.428 129.707 C 234.118 132.96 238.541 135.519 242.48 138.468 C 244.314 139.841 246.193 141.134 248.135 142.347 C 249.017 142.898 249.73 143.502 250.512 144.172 C 251.476 145 251.691 144.875 252.873 144.528 C 255.038 143.892 257.244 143.91 259.474 144.078 C 260.335 144.142 262.349 144.716 263.15 144.335 C 263.807 144.023 264.476 142.715 265.026 142.164 C 266.633 140.554 268.345 139.022 270.15 137.636 C 271.064 136.936 271.996 136.258 272.923 135.576 C 273.563 135.105 274.621 133.882 275.418 133.799 C 275.739 134.325 275.082 136.17 275.04 136.82 C 274.967 137.906 275.018 139.002 275.024 140.089 C 275.036 142.489 275.179 144.962 274.874 147.348 C 274.757 148.258 274.636 149.003 274.154 149.704 C 274.02 149.9 273.657 149.828 273.527 150.1 C 273.398 150.368 273.824 151.111 273.882 151.264 C 274.664 153.307 275.042 155.329 275.028 157.516 C 275.022 158.449 273.598 158.767 274.279 161.071 C 276.622 169 269.794 175.65 268.503 177.038 Z" stroke-width="1.2" stroke-miterlimit="10" stroke-dasharray="" stroke-dashoffset="0" style="fill: rgb(171, 171, 171);">
          <title>kopf-farbe</title>
        </path>
        <path d="M 266.688 178.177 C 266.261 178.712 250.511 179.571 250.784 178.748 C 250.875 178.473 250.961 178.196 251.041 177.918 C 251.247 177.201 251.744 176.096 251.921 175.858 C 252.38 175.038 252.443 174.934 252.378 174.676 C 252.295 174.352 251.97 173.948 251.691 173.604 C 251.358 173.194 250.336 171.912 250.237 171.768 C 250.124 171.604 249.928 171.375 249.989 171.384 C 250.179 171.414 250.764 172.096 250.826 172.163 C 251.166 172.535 251.67 173.138 252.185 173.572 C 253.982 175.185 256.895 176.166 257.212 176.262 C 257.72 176.417 258.5 176.579 259.132 176.65 C 262.541 177.029 265.63 176.052 266.857 175.34 C 267.233 175.122 267.32 174.817 267.353 174.963 C 267.389 175.124 267.292 175.258 267.373 175.505 C 267.568 176.091 267.947 176.18 268.178 176.366 C 268.283 176.45 268.387 176.534 268.493 176.616 C 268.617 176.711 268.639 176.827 268.531 176.946 C 268.405 177.086 268.286 177.232 268.164 177.375 C 268.092 177.46 267.992 177.507 267.886 177.544 C 266.998 177.849 267.257 177.465 266.688 178.177 Z" fill="#e1e1e1" stroke="none" stroke-width="0" stroke-miterlimit="10" stroke-dasharray="" stroke-dashoffset="0" style="">
          <title>hals</title>
        </path>
        <g fill="#272727" stroke="#272727" stroke-width="0.5" stroke-miterlimit="10" stroke-dasharray="" stroke-dashoffset="0" style="">
          <title>streifen</title>
          <path d="M260.29999,144.27323c0.06155,-0.1138 0.69546,0.07753 1.03186,0.24812c0.33283,0.1694 0.65253,0.38054 0.93644,0.62269c0.27437,0.23501 0.49746,0.50818 0.72172,0.7897c0.15627,0.19683 0.57498,0.60123 0.57617,0.86605c-0.11928,0.05727 -0.56663,-0.53084 -0.6728,-0.64298c-0.24694,-0.26005 -0.49029,-0.40679 -0.7754,-0.61435c-0.5368,-0.38889 -1.03067,-0.93762 -1.67006,-1.14878c-0.04771,-0.01551 -0.18429,-0.07037 -0.14792,-0.12047z"/>
          <path d="M258.05852,144.14676c0.66923,-0.02147 1.54135,-0.11477 1.97902,0.45689c0.52799,0.68962 0.52715,2.01375 0.3877,1.97784c-0.14195,-0.04653 -0.22546,-0.57737 -0.26244,-0.69428c-0.09663,-0.30776 -0.1682,-0.52487 -0.37695,-0.76585c-0.18371,-0.21115 -0.32686,-0.36741 -0.5893,-0.47835c-0.3352,-0.14194 -0.67757,-0.26841 -1.01636,-0.4044c-0.03936,-0.01551 -0.08469,-0.02744 -0.12168,-0.09065z"/>
          <path d="M255.48421,144.17182c0,0 0.84337,-0.04056 1.1595,0.00953c0.16343,0.02624 0.47002,0.05727 0.59646,0.18729c0.12048,0.12526 0.16224,0.43184 0.21353,0.5893c0.14077,0.42944 0.26125,0.76943 0.19444,1.22632c-0.03101,0.21591 -0.06441,0.43065 -0.09901,0.64537c-0.01671,0.10139 -0.01671,0.53322 -0.13361,0.5881c-0.13718,-0.07754 -0.0847,-0.87202 -0.10378,-1.03782c-0.03817,-0.34475 -0.14195,-0.62508 -0.27078,-0.94597c-0.10498,-0.26005 -0.15149,-0.50699 -0.39605,-0.6728c-0.30777,-0.20875 -0.7229,-0.33281 -1.06169,-0.48791c-0.03937,-0.01789 -0.08469,-0.03101 -0.09901,-0.1014z"/>
        </g>
        <g style="">
          <title>schatten-kopf</title>
          <path d="M 269.788 176.16 C 268.778 177.164 268.091 177.618 266.925 177.737 C 266.937 177.117 267.782 176.546 267.145 175.754 C 269.425 174.8 272.136 171.223 274.628 167.568 C 275.65 166.069 273.534 171.243 272.481 172.757 C 271.578 174.056 270.668 175.285 269.788 176.16 Z" style="fill-opacity: 0.48;"/>
          <path d="M 246.074 149.499 C 246.026 150.211 243.378 151.672 242.781 151.814 C 241.192 152.193 239.454 152.269 237.836 152.585 C 237.271 152.694 234.671 152.882 234.345 153.399 C 234.127 153.743 232.776 162.893 232.656 163.974 C 232.607 164.415 233.493 163.998 234.823 163.66 C 234.697 163.776 234.704 163.766 234.666 163.807 C 234.039 164.471 234.198 165.831 234.306 166.649 C 234.43 167.596 234.734 168.497 235.151 169.355 C 235.702 170.487 235.824 170.447 235.416 171.543 C 235.695 171.94 236.122 171.496 236.471 171.804 C 235.312 174.24 248.714 178.084 250.537 178.507 C 250.346 179.775 240.807 177.394 239.696 176.93 C 238.083 176.258 237.08 175.138 235.366 173.412 C 234.16 171.994 233.243 170.236 232.358 168.604 C 232.038 168.015 231.426 167.228 231.431 166.549 C 231.437 165.731 232.182 164.704 232.4 163.891 C 232.605 163.121 232.645 162.285 232.987 161.558 C 233.357 160.77 233.701 160.231 233.794 159.334 C 233.914 158.177 233.86 157.002 233.865 155.842 C 233.87 154.896 234.206 153.451 233.867 152.551 C 233.604 151.848 232.887 151.306 232.596 150.566 C 232.274 149.753 232.172 148.889 232.069 148.028 C 231.824 145.981 231.698 143.919 231.514 141.865 C 231.315 139.624 231.219 137.558 231.348 135.313 C 231.402 134.39 231.566 133.309 231.422 132.402 C 231.275 131.475 230.43 130.834 230.271 129.926 C 230.887 129.785 231.952 132.224 232.248 132.61 C 232.921 133.485 233.953 134.071 234.888 134.68 C 237.025 136.072 239.241 137.364 241.405 138.723 C 243.619 140.114 245.863 141.449 248.091 142.82 C 248.95 143.348 250.188 144.555 251.172 144.745 C 252.122 144.929 254.127 144.22 255.111 144.023 C 255.087 144.486 252.736 145.124 252.245 145.389 C 251.137 145.985 250.099 146.713 248.899 147.123 C 249.425 145.498 251.791 145.959 249.652 144.377 C 248.05 143.191 246.356 142.146 244.656 141.107 C 242.933 140.054 241.236 138.961 239.516 137.903 C 239.029 137.603 236.091 135.371 235.481 135.827 C 234.995 136.189 236.199 140.32 236.315 140.943 C 236.704 143.043 237.059 145.154 237.554 147.232 C 237.926 148.791 238.124 150.726 240.006 151.093 C 241.626 151.409 243.809 150.084 245.308 149.557 C 245.544 149.474 245.798 149.29 246.072 149.498 L 246.074 149.499 Z" style="fill-opacity: 0.48;"/>
          <path d="M 263.917 144.622 C 265.037 145.664 266.635 146.019 267.529 147.517 C 264.692 146.441 262.487 144.216 259.395 144.051 C 260.283 143.49 261.588 144.376 262.543 144.267 C 263.476 144.161 263.84 143.484 264.418 142.811 C 266.432 140.469 269.125 138.602 271.474 136.605 C 272.076 136.093 272.712 135.69 273.355 135.237 C 273.891 134.859 274.387 134.23 274.956 133.925 C 275.288 133.747 275.692 133.279 275.801 134.043 C 275.854 134.411 274.624 135.174 274.412 135.352 C 271.84 137.517 269.258 139.685 266.753 141.927 C 265.789 142.791 264.753 143.569 263.917 144.618 L 263.917 144.622 Z" style="fill-opacity: 0.48;"/>
          <path d="M 270.006 147.949 C 271 148.518 272.235 148.978 273.165 149.587 C 273.994 150.131 274.031 150.981 274.51 151.994 C 273.984 151.95 272.701 151.945 272.28 151.588 C 271.893 151.259 272.026 151.02 271.857 150.537 C 271.474 149.44 270.588 148.99 269.9 148.133 C 269.936 148.072 269.971 148.011 270.007 147.949 L 270.006 147.949 Z" style="fill-opacity: 0.48;"/>
        </g>
        <path d="M 268.503 177.038 C 268.291 177.266 267.997 177.494 267.711 177.607 C 265.945 178.304 259.942 179.36 254.998 179.239 C 245.145 178.997 241.895 177.812 240.558 177.394 C 238.862 176.864 238.308 176.08 238.151 175.907 C 237.561 175.291 236.889 174.767 236.302 174.138 C 235.696 173.488 234.969 172.909 234.433 172.214 C 233.768 171.351 233.344 170.181 232.813 169.229 C 232.319 168.343 231.282 167.22 231.358 166.167 C 231.416 165.348 232.021 164.387 232.461 163.542 C 232.707 162.521 232.473 161.851 233.405 160.837 C 233.786 159.209 233.916 157.537 233.988 155.841 C 234.034 154.736 234.215 153.505 233.807 152.467 C 233.407 151.45 232.676 150.59 232.319 149.528 C 231.68 147.622 231.912 145.417 231.832 143.43 C 231.725 140.751 231.632 138.073 231.552 135.392 C 231.523 134.408 231.479 133.455 231.208 132.499 C 230.953 131.6 230.2 130.646 230.177 129.707 L 230.428 129.707 C 234.118 132.96 238.541 135.519 242.48 138.468 C 244.314 139.841 246.193 141.134 248.135 142.347 C 249.017 142.898 249.73 143.502 250.512 144.172 C 251.476 145 251.691 144.875 252.873 144.528 C 255.038 143.892 257.244 143.91 259.474 144.078 C 260.335 144.142 262.349 144.716 263.15 144.335 C 263.807 144.023 264.476 142.715 265.026 142.164 C 266.633 140.554 268.345 139.022 270.15 137.636 C 271.064 136.936 271.996 136.258 272.923 135.576 C 273.563 135.105 274.621 133.882 275.418 133.799 C 275.739 134.325 275.082 136.17 275.04 136.82 C 274.967 137.906 275.018 139.002 275.024 140.089 C 275.036 142.489 275.179 144.962 274.874 147.348 C 274.757 148.258 274.636 149.003 274.154 149.704 C 274.02 149.9 273.657 149.828 273.527 150.1 C 273.398 150.368 273.824 151.111 273.882 151.264 C 274.664 153.307 275.042 155.329 275.028 157.516 C 275.022 158.449 273.598 158.767 274.279 161.071 C 276.622 169 269.794 175.65 268.503 177.038 Z" stroke-width="1.2" stroke-miterlimit="10" stroke-dasharray="" stroke-dashoffset="0" style="stroke: rgb(39, 39, 39); fill: none;">
          <title>kopf-grund-umriss</title>
        </path>
        <g style="">
          <title>halsband2</title>
          <path d="M 262.553 178.884 C 263.612 179.191 251.346 185.553 236.21 178.681 C 234.544 179.682 234.189 179.923 232.87 180.716 C 231.416 181.59 231.344 181.573 229.036 182.989 C 227.795 184.523 227.238 185.273 228.197 182.652 C 231.255 174.292 235.531 173.503 236.696 173.313 C 239.702 172.832 243.026 173.287 244.64 173.656 C 246.253 174.025 247.13 174.369 248.375 174.732 C 250.639 175.393 252.897 176.076 255.16 176.738 C 257.623 177.459 260.089 178.169 262.553 178.884 Z" stroke-width="1.2" stroke-miterlimit="10" stroke-dasharray="" stroke-dashoffset="0" style="fill: rgb(94, 168, 45);">
            <title>umhang-farbe2</title>
          </path>
          <path d="M 238.131 179.855 C 237.409 179.433 236.675 179.005 235.935 178.208 C 235.66 177.912 235.826 177.741 236.576 176.687 C 237.215 175.789 237.212 174.984 237.553 175.317 C 238.231 175.977 238.794 176.548 239.403 176.885 C 239.88 177.149 241.239 177.616 243.203 178.038 C 244.845 178.391 246.736 178.591 247.405 178.684 C 251.177 179.21 255.966 179.194 257.531 179.156 C 258.974 179.09 259.558 179.03 260.729 178.864 C 266.233 178.285 267.786 177.525 267.951 177.501 C 268.44 177.428 267.131 179.462 266.922 179.761 C 266.429 180.466 265.942 181.129 265.137 181.478 C 264.328 181.828 263.489 182.009 262.635 182.228 C 262.223 182.334 261.811 182.44 261.4 182.549 C 258.44 183.09 255.714 182.994 252.785 182.805 C 252.316 182.784 251.854 182.718 251.389 182.669 C 250.493 182.574 249.594 182.51 248.697 182.415 C 246.881 182.226 245.215 182.039 243.298 181.621 C 241.544 181.238 240.096 181.003 238.131 179.855 Z" stroke-width="1.2" stroke-miterlimit="0" style="fill: rgb(94, 168, 45);">
            <title>halsband2-farbe</title>
          </path>
          <g style="">
            <title>schatten-halsband2</title>
            <path style="fill-opacity: 0.48;" d="M 228.349 183.265 C 228.349 183.265 228.671 180.875 229.375 179.646 C 229.375 179.646 233.261 177.156 236.319 178.805 C 237.328 179.554 228.349 183.265 228.349 183.265 Z"/>
            <path d="M 227.988 184.849 C 227.815 185.094 227.344 184.189 227.535 183.922 C 227.889 183.426 228.366 182.969 229.143 182.543 C 230.649 181.719 232.689 179.756 233.713 179.756 C 233.922 180.068 235.862 179.007 235.934 178.59 C 236.087 179.128 237.242 179.362 237.667 179.51 C 239.057 179.994 240.485 180.37 241.884 180.831 C 245.03 181.867 247.895 182.135 251.217 182.241 C 254.542 182.348 257.962 182.458 261.283 182.189 C 262.667 182.076 264.091 181.782 265.325 181.115 C 266.656 180.395 267.077 179.311 267.614 177.96 C 267.938 177.612 268.054 177.525 268.449 177.116 C 268.398 178.45 268.653 180.057 267.617 180.74 C 264.593 182.736 260.944 183.014 257.421 182.977 C 253.404 182.936 249.247 182.898 245.268 182.332 C 241.628 181.815 237.012 179.662 233.363 181.015 C 232.064 181.497 230.288 182.399 229.272 183.336 C 228.797 183.774 228.378 184.295 227.988 184.849 Z" style="fill-opacity: 0.48;">
              <title>schatten1</title>
            </path>
            <path style="fill-opacity: 0.48;" d="M 246.24 178.104 C 254.326 177.912 255.864 176.901 255.864 176.901 C 255.864 176.901 254.647 177.803 260.557 178.503 C 261.402 179.166 250.174 180.506 246.24 178.104 Z"/>
            <path style="fill-opacity: 0.48;" d="M 264.201 181.644 C 264.201 181.644 265.379 179.055 263.366 178.895 L 267.353 178.096 L 264.201 181.644 Z" transform="matrix(1, 0, 0, 1, 0.670164, -0.269416)"/>
          </g>
          <g>
            <title>halsband-umrahmung</title>
            <path d="M 262.553 178.68 C 263.493 178.592 267.999 177.59 267.999 177.59 C 267.999 177.59 267.301 179.942 265.558 181.277 C 265.215 181.54 261.466 182.77 258.454 182.898 C 255.974 183.003 253.012 182.843 249.952 182.54 C 247.772 182.324 245.529 182.13 243.402 181.643 C 241.58 181.226 240.192 181.195 236.71 179.209 C 235.997 179.356 235.407 179.381 232.52 180.933 C 231.026 181.736 231.344 181.573 229.036 182.989 C 228.578 183.555 227.854 184.458 227.854 184.458 C 227.854 184.458 227.738 183.907 228.197 182.652 C 231.255 174.292 235.531 173.503 236.696 173.313 C 239.702 172.832 243.026 173.287 244.64 173.656 C 246.253 174.025 247.13 174.369 248.375 174.732 C 250.639 175.393 252.897 176.076 255.16 176.738 C 257.623 177.459 260.089 177.965 262.553 178.68 Z" stroke-width="1.2" stroke-miterlimit="10" stroke-dasharray="" stroke-dashoffset="0" style="fill: none; stroke: rgb(39, 39, 39);">
              <title>umhang-umriss2</title>
            </path>
            <path style="fill: rgb(39, 39, 39);" d="M 237.412 180.262 C 236.016 178.816 234.644 178.337 235.566 178.195 C 236.197 178.098 237.383 178.927 238.279 179.379 C 238.632 179.557 237.738 180.599 237.412 180.262 Z"/>
            <path style="fill: rgb(39, 39, 39);" d="M 263.944 179.022 C 260.267 179.901 255.211 179.871 251.344 179.65 C 248.287 179.476 247.019 179.234 246.63 179.19 C 246.119 179.132 245.743 179.068 245.635 178.854 C 245.483 178.554 245.876 177.976 246.582 177.975 C 246.936 177.974 247.338 178.158 250.98 178.415 C 251.899 178.48 253.027 178.504 254.413 178.557 C 256.528 178.638 259.158 178.525 259.468 178.386 C 259.829 178.224 264.4 178.913 263.944 179.022 Z"/>
          </g>
        </g>
        <g stroke="#272727" stroke-miterlimit="10" stroke-dasharray="" stroke-dashoffset="0" style="">
          <title>gesicht</title>
          <path d="M 252.473 174.066 C 251.94 173.511 251.363 173.074 250.895 172.56 C 250.379 171.991 249.944 171.454 249.575 170.775 C 249.395 170.444 249.123 170.073 249.049 169.701 C 247.519 167.111 248.559 161.587 249.245 161.021 C 250.013 160.315 250.776 160.478 253.009 160.06 C 254.109 159.854 256.193 158.954 257.867 158.342 C 260.752 157.483 263.217 157.823 265.37 158.208 C 268.017 158.799 270.254 158.971 271.425 159.891 C 273.667 161.64 274.138 163.969 273.959 166.27 C 273.753 167.55 273.42 168.338 273.126 168.972 C 272.847 169.654 271.524 171.786 270.773 172.554 C 270.238 173.109 269.473 173.752 268.984 174.206 C 266.735 176.252 261.436 177.852 256.495 176.25 C 255.1 175.798 253.734 175.09 252.473 174.066 L 252.473 174.066 Z" fill="#e1e1e1" stroke="none" stroke-width="0" stroke-miterlimit="10" stroke-dasharray="" stroke-dashoffset="0">
            <title>wangen</title>
          </path>
          <path d="M 253.991 174.833 C 254.739 175.279 256.273 176.026 257.141 176.279 C 257.305 176.327 257.138 176.421 256.933 176.366 C 253.991 175.582 250.462 173.037 249.529 172.158 C 248.905 171.455 247.784 170.677 246.78 168.931 C 246.583 168.535 246.444 168.093 246.278 167.682 C 245.944 166.854 245.606 166.026 245.275 165.195 C 245.089 164.729 244.986 164.587 244.493 164.456 C 244.041 164.334 243.589 164.212 243.136 164.088 C 242.295 163.856 241.415 163.497 240.542 163.424 C 239.622 163.348 238.661 163.475 237.736 163.474 C 236.877 163.473 235.938 163.395 235.1 163.596 C 234.617 163.711 234.139 163.854 233.658 163.976 C 233.409 164.038 233.177 164.157 232.848 164.191 C 232.831 164.193 232.813 164.176 232.816 164.157 C 232.819 164.138 232.915 163.981 233.016 163.763 C 233.066 163.656 233.137 163.197 233.157 163.04 C 233.195 162.745 233.21 162.469 233.293 162.168 C 233.372 161.881 233.502 161.67 233.588 161.553 C 233.751 161.331 233.874 161.215 233.906 161.164 C 233.976 161.055 233.99 160.957 234.029 160.79 C 234.068 160.623 234.053 160.675 234.075 160.58 C 234.077 160.57 234.079 160.561 234.087 160.555 C 234.095 160.549 234.109 160.547 234.12 160.543 C 234.311 160.491 234.505 160.453 234.64 160.417 C 235.404 160.216 235.858 160.009 236.51 159.825 C 239.092 159.157 240.928 159.274 241.157 159.3 C 241.747 159.364 242.042 159.301 242.631 159.382 C 244.846 159.684 248.88 160.759 251.066 160.375 C 251.25 160.342 251.232 160.449 250.988 160.595 C 250.774 160.705 250.015 160.776 249.559 161.31 C 248.393 162.828 247.952 166.006 248.813 169.047 C 249.225 170.23 250.611 172.638 253.991 174.833 Z" stroke="#272727" stroke-width="0" stroke-miterlimit="10" stroke-dasharray="" stroke-dashoffset="0" style="fill: rgb(225, 225, 225);"/>
          <path d="M 233.66 160.598 C 233.66 160.598 233.742 157.011 233.742 156.7 C 233.742 156.132 233.742 155.566 233.742 154.997 C 233.742 154.102 233.516 153.339 234.548 153.161 C 236.541 152.814 238.536 152.492 240.531 152.153 C 244.073 151.551 247.609 150.914 251.154 150.332 C 252.986 150.031 254.857 149.954 256.709 149.833 C 258.351 149.767 260.191 149.879 261.955 150.052 C 263.838 150.207 265.649 150.505 267.5 150.714 C 268.39 150.814 269.319 150.929 270.186 151.063 C 271.05 151.209 271.931 151.335 272.589 151.531 C 273.094 151.65 273.923 151.818 274.234 152.064 C 274.521 152.291 274.476 152.663 274.506 153.032 C 274.572 153.848 274.626 154.669 274.677 155.486 C 274.736 156.421 274.739 157.361 274.74 158.299 C 274.74 158.772 274.738 159.246 274.736 159.718 C 274.734 160.076 274.848 160.666 274.698 160.988 C 274.37 161.188 273.058 160.432 272.71 160.296 C 272.006 160.022 271.364 159.762 270.608 159.677 C 269.101 159.508 267.587 159.379 266.078 159.23 C 263.366 158.963 260.529 158.562 257.827 159.132 C 255.204 159.685 252.66 160.409 249.993 160.716 C 249.258 160.801 248.513 160.922 247.778 160.77 C 247.113 160.633 246.455 160.432 245.792 160.279 C 245.089 160.116 244.38 159.981 243.679 159.811 C 243.055 159.658 242.44 159.444 241.79 159.449 C 240.479 159.461 239.131 159.704 237.822 159.821 C 236.372 159.948 235.069 160.228 233.66 160.598 Z" fill="#575757" stroke="#272727" stroke-width="1.2" stroke-miterlimit="10" stroke-dasharray="" stroke-dashoffset="0" style="">
            <title>augenbinde</title>
          </path>
          <g fill="#b6d597" stroke-width="0">
            <title>augen</title>
            <path d="M250.6527,152.59126c0.31588,-0.07396 1.49914,-0.23989 2.38964,0.4248c0.22665,0.15269 0.40201,0.35668 0.52608,0.59884c0.29943,0.58334 0.55589,1.22512 0.45687,1.89195c-0.0847,0.57736 -0.72052,1.14878 -1.15474,1.50784c-0.25528,0.21115 -0.52726,0.37933 -0.83622,0.50102c-0.70036,0.40022 -1.82946,0.49995 -2.8618,0.09304c-0.20279,-0.08352 -0.41155,-0.18132 -0.57258,-0.33281c-0.1682,-0.15747 -0.29632,-0.36863 -0.39652,-0.57499c-0.27652,-0.58739 -0.28438,-1.3042 -0.14387,-1.78696c0.12169,-0.3698 0.28868,-0.72289 0.53084,-1.02352c0.32209,-0.39962 0.68222,-0.68079 1.19887,-0.96518c0.41047,-0.20745 0.48408,-0.23369 0.86343,-0.33401z"/>
            <path d="M271.58134,155.17879c0.04174,0.49625 -0.22152,1.25769 -0.82418,1.59122c-0.49614,0.27448 -0.93631,0.28701 -1.50295,0.24168c-0.88871,-0.07157 -2.28823,-0.84399 -2.18445,-1.97246c0.04174,-0.44853 0.22903,-0.88394 0.538,-1.21318c0.32328,-0.34355 0.81356,-0.71098 1.29073,-0.76467c0.96744,-0.10975 1.90101,0.28081 2.38581,1.15474c0.19885,0.35847 0.29787,0.70108 0.29704,0.96269z"/>
          </g>
          <g fill="#272727" stroke-width="0.5">
            <title>mund-nase</title>
            <g>
              <title>mund</title>
              <path d="M263.1236,173.28477c-0.25147,0.03185 -0.60813,0.07611 -0.99463,0.09663c-0.6864,0.01611 -1.3709,-0.04295 -2.00553,-0.18969c-0.60003,-0.13957 -1.30505,-0.42253 -1.79413,-0.72171c-0.964,-0.58965 -1.81324,-1.31101 -2.1043,-2.42876c-0.02265,-0.08828 -0.10736,-0.62389 0.11333,-0.45569c0.02385,0.01909 0.04402,0.23572 0.05487,0.28511c0.03305,0.15043 0.15449,0.45783 0.28415,0.64297c0.16748,0.23907 0.52024,0.69071 1.27379,1.17145c0.43076,0.27484 1.87156,1.13135 3.47614,1.19887c0.72028,0.0303 1.43747,0.02505 2.1544,-0.0668c0.38531,-0.05011 0.82943,-0.08981 1.12849,-0.14541c0.42539,-0.09054 0.512,-0.08685 1.02112,-0.26495c0.02326,0.03233 0.05427,0.1218 0.00774,0.18573c-0.17286,0.08564 -0.86164,0.34357 -1.09212,0.41191c-0.55017,0.16332 -1.00549,0.21473 -1.52334,0.28035z"/>
            </g>
            <g>
              <title>nase</title>
              <path d="M262.64047,163.55182c0.14195,-0.01432 0.35908,0.58215 0.4378,0.71576c0.17656,0.29943 0.28749,0.538 0.32088,0.88752c0.06442,0.6561 0.07231,1.40595 -0.02146,2.06134c-0.0847,0.59169 -0.27438,1.26688 -0.52131,1.82755c-0.08947,0.20279 -0.89718,1.57594 -1.03425,1.40882c-0.10581,0.00788 0.33521,-1.03425 0.50223,-1.55077c0.17179,-0.53323 0.4354,-1.09985 0.44257,-1.6641c0.00835,-0.58929 0.05583,-1.18336 -0.04174,-1.76551c-0.19707,-1.17503 -0.27329,-1.3635 -0.27747,-1.83577c-0.00036,-0.03866 0.16772,-0.05738 0.19397,-0.08482z"/>
              <path d="M260.45865,161.88533c0.43327,-0.04534 1.85845,-0.03936 2.2713,-0.00835c0.6728,0.0668 2.96211,0.01432 2.55043,1.03068c-0.11298,0.27877 -0.21411,0.37135 -0.36586,0.54992c-0.18669,0.21974 -0.39164,0.43063 -0.58249,0.65491c-0.39366,0.46286 -0.61792,0.71932 -1.24301,0.71932c-0.17917,0.01576 -0.56544,0.00238 -0.61554,-0.01909c-0.21353,-0.09425 -0.42705,-0.18609 -0.63939,-0.2827c-0.91974,-0.4211 -1.83827,-0.84458 -2.76039,-1.26331c-0.14315,-0.06441 -0.20042,-0.16103 -0.18848,-0.31491c0.01074,-0.14792 0.00716,-0.29704 0.00835,-0.44615c0.00239,-0.28152 0.02146,-0.30299 0.29106,-0.37814c0.41275,-0.11571 0.83146,-0.19921 1.27402,-0.24216z"/>
            </g>
          </g>
          <g style="">
            <title>schatten-gesicht</title>
            <path d="M 233.867 153.055 C 233.604 152.352 236.108 152.672 235.782 153.189 C 235.51 153.619 235.864 154.994 235.898 155.496 C 235.957 156.394 235.999 157.294 236.065 158.192 C 236.138 159.174 236.054 159.377 237.06 159.466 C 238.71 159.61 240.457 159.153 242.118 159.175 C 243.88 159.199 245.61 159.763 247.364 159.932 C 249.079 160.097 250.865 160.139 252.574 159.884 C 254.241 159.635 255.989 158.801 257.689 158.857 C 257.821 159.525 252.049 160.535 251.4 160.667 C 250.476 160.853 249.903 161.03 249.466 161.913 C 248.968 162.922 248.852 164.229 248.896 165.099 C 248.931 165.784 248.461 175.903 261.521 176.26 C 265.093 176.358 268.306 174.523 270.735 172.308 C 273.168 170.089 274.485 166.567 273.92 163.533 C 274.472 164.585 275.066 165.714 274.008 168.284 C 273.242 170.146 271.034 172.556 270.471 173.218 C 268.384 175.672 266.288 176.186 264.33 176.727 C 256.537 178.882 250.105 172.861 249.992 172.77 C 243.711 167.712 246.442 163.764 246.589 163.469 C 246.816 163.013 247.901 161.575 248.126 161.115 C 245.566 159.671 242.341 159.677 239.504 159.775 C 238.548 159.809 236.718 159.445 236.198 160.491 C 235.647 161.599 237.015 162.366 237.191 163.341 C 236.467 163.341 235.41 163.194 234.787 163.695 C 233.665 163.956 232.923 164.25 232.804 164.196 C 232.755 164.174 233.011 163.741 233.065 163.545 C 233.223 162.975 232.981 162.066 233.925 161.125 C 234.392 160.66 233.718 160.071 233.794 159.334 C 233.914 158.177 233.86 157.002 233.865 155.842 C 233.87 154.896 234.206 153.955 233.867 153.055 Z" style="fill-opacity: 0.48; stroke: none;"/>
            <path d="M 272.367 159.554 C 273.794 159.676 274.122 160.03 274.202 161.444 C 273.43 160.963 273.026 160.247 272.367 159.554 Z" style="fill-opacity: 0.48; stroke: none;"/>
          </g>
          <path d="M 233.66 160.598 C 233.66 160.598 233.742 157.011 233.742 156.7 C 233.742 156.132 233.742 155.566 233.742 154.997 C 233.742 154.102 233.516 153.339 234.548 153.161 C 236.541 152.814 238.536 152.492 240.531 152.153 C 244.073 151.551 247.609 150.914 251.154 150.332 C 252.986 150.031 254.857 149.954 256.709 149.833 C 258.351 149.767 260.191 149.879 261.955 150.052 C 263.838 150.207 265.649 150.505 267.5 150.714 C 268.39 150.814 269.319 150.929 270.186 151.063 C 271.05 151.209 271.931 151.335 272.589 151.531 C 273.094 151.65 273.923 151.818 274.234 152.064 C 274.521 152.291 274.476 152.663 274.506 153.032 C 274.572 153.848 274.626 154.669 274.677 155.486 C 274.736 156.421 274.739 157.361 274.74 158.299 C 274.74 158.772 274.738 159.246 274.736 159.718 C 274.734 160.076 274.848 160.666 274.698 160.988 C 274.37 161.188 273.058 160.432 272.71 160.296 C 272.006 160.022 271.364 159.762 270.608 159.677 C 269.101 159.508 267.587 159.379 266.078 159.23 C 263.366 158.963 260.529 158.562 257.827 159.132 C 255.204 159.685 252.66 160.409 249.993 160.716 C 249.258 160.801 248.513 160.922 247.778 160.77 C 247.113 160.633 246.455 160.432 245.792 160.279 C 245.089 160.116 244.38 159.981 243.679 159.811 C 243.055 159.658 242.44 159.444 241.79 159.449 C 240.479 159.461 239.131 159.704 237.822 159.821 C 236.372 159.948 235.069 160.228 233.66 160.598 Z" stroke="#272727" stroke-width="1.2" stroke-miterlimit="10" stroke-dasharray="" stroke-dashoffset="0" style="fill: none;">
            <title>augenbinde-umriss</title>
          </path>
          <g fill="#272727" stroke="#272727" stroke-width="0.5" stroke-miterlimit="10" stroke-dasharray="" stroke-dashoffset="0" style="">
            <title>schnuris</title>
            <path d="M253.02802,168.33658c0.08839,0.34439 -3.52027,0.4724 -4.14178,0.50818c-1.6987,0.09902 -3.39741,0.21233 -5.08895,0.40559c-0.85651,0.09781 -1.70824,0.22903 -2.56594,0.3197c-0.73005,0.07636 -1.65577,-0.03221 -2.32856,0.2529c-0.64298,0.27199 -1.2442,0.8601 -1.81084,1.2633c-0.29943,0.21234 -1.30982,1.20124 -1.66648,1.10462c-0.71098,-0.19444 -0.29465,-0.75751 0.05726,-0.98772c0.69666,-0.45568 1.40644,-0.89348 2.10429,-1.34799c1.41598,-0.92212 3.14212,-0.90304 4.80384,-1.0784c1.72853,-0.1825 3.44991,-0.44018 5.18916,-0.48432c1.75357,-0.04414 3.7622,0.00155 4.21073,-0.01109c0.32591,0.00728 1.24517,-0.10664 1.23729,0.05524z"/>
            <path d="M252.45185,170.72479c0.16354,-0.08757 0.50603,0.22391 0.40917,0.37696c-0.43805,0.42682 -4.712,2.53613 -7.09542,3.44751c-1.15235,0.44019 -2.30352,0.96388 -3.48211,1.32772c-0.5225,0.16103 -3.47017,1.1082 -3.75646,0.59406c0.34117,-0.33283 0.97699,-0.37337 1.41837,-0.49982c0.48313,-0.13837 0.96386,-0.2851 1.4458,-0.42945c1.02828,-0.30897 2.01125,-0.69666 3.00971,-1.08913c2.02556,-0.79686 4.17756,-1.46131 6.04925,-2.5898c0.65491,-0.39486 1.86069,-1.06252 2.0017,-1.13804z"/>
            <path d="M287.63192,167.84034c-0.02123,0.47585 -2.5409,0.73125 -3.59901,0.87082c-1.50664,0.19921 -3.04429,0.24932 -4.56286,0.2362c-1.4804,-0.01193 -2.962,-0.08709 -4.44119,-0.00835c-1.12729,0.05964 -3.7629,0.36049 -4.04994,-0.12645c-0.16439,-0.15639 4.92314,-0.42945 7.36741,-0.42587c2.55879,0.00358 5.05793,0.06799 7.58451,-0.38769c0.54755,-0.09902 1.71802,-0.44388 1.7011,-0.15866z"/>
            <path d="M271.11252,166.40884c-0.20948,-0.20602 2.12696,-0.59169 3.02283,-0.81594c1.2454,-0.31016 2.50153,-0.56187 3.77675,-0.7086c1.18574,-0.13719 2.36197,-0.33879 3.54653,-0.47716c0.60361,-0.07038 1.20484,-0.14911 1.80487,-0.24574c0.303,-0.04891 1.25614,-0.37339 1.54361,-0.1682c0.36431,0.38197 -2.01959,0.91258 -2.81049,1.04021c-1.17264,0.18848 -2.35838,0.24693 -3.53341,0.41513c-2.34765,0.33523 -4.70363,0.60839 -7.03458,1.04977c-0.11212,0.02147 -0.22547,0.06919 -0.31493,-0.08829z"/>
            <path d="M277.95862,154.38551c0.34403,-0.04068 -0.79686,2.02317 -1.04976,2.47767c-0.48908,0.87919 -0.9579,1.76789 -1.43268,2.65421c-0.80283,1.50188 -1.50427,3.56919 -3.17791,4.30521c-0.29823,0.13121 -0.52844,0.24693 -0.44973,-0.17893c0.05129,-0.27558 0.87202,-0.80401 1.09868,-1.00442c0.75274,-0.66565 1.13326,-1.56629 1.62236,-2.44189c1.02233,-1.82992 2.32499,-3.60736 3.16001,-5.52914c0.04415,-0.10139 0.07156,-0.22188 0.22783,-0.28271z"/>
            <path d="M252.70713,167.17707c-0.08899,0.26649 -1.4637,-0.44853 -1.92178,-0.66683c-0.76823,-0.36622 -1.58538,-0.64178 -2.37748,-0.95194c-1.63906,-0.64417 -3.14571,-1.42075 -4.93625,-1.47682c-1.82516,-0.05846 -3.65149,-0.07037 -5.47665,-0.09425c-1.85259,-0.02385 -5.19236,0.92844 -5.16052,0.76942c-0.06562,-0.31492 1.56736,-1.0445 1.86451,-1.1416c0.66517,-0.21723 1.4983,-0.28988 2.33333,-0.28035c1.96831,0.02028 3.9378,0.04295 5.90608,0.05369c0.86247,0.00477 1.77745,-0.0847 2.62321,0.11691c0.79328,0.18967 1.47562,0.64536 2.18779,1.02112c1.56152,0.82431 3.05277,1.57322 4.19165,2.13889c0.20268,0.10068 0.80724,0.38841 0.76609,0.51176z"/>
          </g>
        </g>
      </g>
    </g>
  </g>
</svg>
