<?xml version="1.0" encoding="utf-8"?>
<svg viewBox="0 0 158.75 79.375" width="600" height="300" xmlns="http://www.w3.org/2000/svg">
    <path fill="green" d="M0 79.375V0h158.75v79.375z"
        style="mix-blend-mode:normal;fill:#76b452;fill-opacity:1;fill-rule:nonzero;stroke:none;stroke-width:.898027;stroke-linecap:butt;stroke-linejoin:miter;stroke-miterlimit:10;stroke-dasharray:none;stroke-dashoffset:0" />
    <path fill="#62ad44"
        d="M.20923618 39.687502c0-43.7220435 35.44371882-79.165766 79.16576582-79.165766 43.722038 0 79.165768 35.4437225 79.165768 79.165766 0 43.722035-35.44373 79.165768-79.165768 79.165768-43.722046 0-79.16576582-35.443733-79.16576582-79.165768z"
        style="mix-blend-mode:normal;fill:#89bc64;fill-opacity:1;fill-rule:nonzero;stroke:none;stroke-width:.936949;stroke-linecap:butt;stroke-linejoin:miter;stroke-miterlimit:10;stroke-dasharray:none;stroke-dashoffset:0" />
    <path fill="green"
        d="M10.001328 39.687502c0-38.3140187 31.059649-69.373671 69.373672-69.373671 38.31402 0 69.37367 31.0596523 69.37367 69.373671 0 38.31401-31.05965 69.373668-69.37367 69.373668S10.001331 78.001512 10.001331 39.687504z"
        style="mix-blend-mode:normal;fill:#76b452;fill-opacity:1;fill-rule:nonzero;stroke:none;stroke-width:.936949;stroke-linecap:butt;stroke-linejoin:miter;stroke-miterlimit:10;stroke-dasharray:none;stroke-dashoffset:0" />
    <path fill="#62ad44"
        d="M19.917383 39.687502c0-32.8375404 26.620087-59.457626 59.457626-59.457626 32.837541 0 59.457621 26.6200856 59.457621 59.457626 0 32.837532-26.62009 59.457627-59.457621 59.457627-32.837539 0-59.457624-26.620095-59.457626-59.457627z"
        style="mix-blend-mode:normal;fill:#89bc64;fill-opacity:1;fill-rule:nonzero;stroke:none;stroke-width:.936949;stroke-linecap:butt;stroke-linejoin:miter;stroke-miterlimit:10;stroke-dasharray:none;stroke-dashoffset:0" />
    <path fill="green"
        d="M29.95738 39.687502c0-27.292601 22.125025-49.4176273 49.417629-49.4176273 27.292601 0 49.417631 22.1250263 49.417631 49.4176273s-22.12503 49.417632-49.417631 49.417632c-27.292599 0-49.417624-22.125031-49.417624-49.417632z"
        style="mix-blend-mode:normal;fill:#76b452;fill-opacity:1;fill-rule:nonzero;stroke:none;stroke-width:.936949;stroke-linecap:butt;stroke-linejoin:miter;stroke-miterlimit:10;stroke-dasharray:none;stroke-dashoffset:0" />
    <path fill="#62ad44"
        d="M39.687495 39.687502C39.687495 17.768699 57.456198 0 79.375 0c21.9188 0 39.68751 17.768699 39.68751 39.687502 0 21.918804-17.76871 39.687505-39.687501 39.687505-21.918809 0-39.687508-17.7687-39.687508-39.687503z"
        style="mix-blend-mode:normal;fill:#89bc64;fill-opacity:1;fill-rule:nonzero;stroke:none;stroke-width:.936949;stroke-linecap:butt;stroke-linejoin:miter;stroke-miterlimit:10;stroke-dasharray:none;stroke-dashoffset:0" />
    <path fill="green"
        d="M49.789468 39.687502c0-16.339636 13.245894-29.585531 29.585532-29.585531 16.339634 0 29.58554 13.245895 29.58554 29.585531 0 16.339638-13.245895 29.585532-29.585531 29.585532-16.339641 0-29.585536-13.245894-29.585536-29.585532z"
        style="mix-blend-mode:normal;fill:#76b452;fill-opacity:1;fill-rule:nonzero;stroke:none;stroke-width:.936949;stroke-linecap:butt;stroke-linejoin:miter;stroke-miterlimit:10;stroke-dasharray:none;stroke-dashoffset:0" />
    <path fill="#62ad44"
        d="M59.51959 39.687502c0-10.965848 8.889571-19.855417 19.85541-19.855417 10.965846 0 19.855417 8.889569 19.855417 19.855417 0 10.965839-8.889571 19.855407-19.855408 19.855407-10.965848 0-19.855416-8.889568-19.855416-19.855407z"
        style="mix-blend-mode:normal;fill:#89bc64;fill-opacity:1;fill-rule:nonzero;stroke:none;stroke-width:.936949;stroke-linecap:butt;stroke-linejoin:miter;stroke-miterlimit:10;stroke-dasharray:none;stroke-dashoffset:0" />
    <path fill="green"
        d="M69.476944 39.687502c0-5.466545 4.431509-9.898053 9.898045-9.898053 5.466538 0 9.898055 4.431508 9.898055 9.898053 0 5.466538-4.431517 9.898045-9.898055 9.898045-5.466536 0-9.898045-4.431507-9.898045-9.898045z"
        style="mix-blend-mode:normal;fill:#76b452;fill-opacity:1;fill-rule:nonzero;stroke:none;stroke-width:.936949;stroke-linecap:butt;stroke-linejoin:miter;stroke-miterlimit:10;stroke-dasharray:none;stroke-dashoffset:0" />

    <!-- <g id="g-1" transform="matrix(1.163134, 0, 0, 1.163081, -9.026044, -35.353489)" style=""> -->
    <!-- <title>logo4</title> -->
    <!-- <g style="" transform="matrix(0.832517, 0, 0, 0.832517, 75.024178, 82.846268)">
            <title>hintergrund</title>

        </g> -->
    <g id="g-2" transform="matrix(0.125, 0, 0, 0.125, 52, 0)" style="">
        <!-- <title>wappen</title> -->

        <path
            d="M 213.06900024414062 205.85000610351562 L 165.85699462890625 323.68701171875 L 242.62399291992188 274.6409912109375 L 225.3730010986328 366.1409912109375 L 137.7790069580078 452.10400390625 L 129 504.6759948730469 L 142.96299743652344 456.16400146484375 L 240.5070037841797 385.26300048828125 L 297.4649963378906 208.58200073242188 L 208.36099243164062 273.3800048828125 L 231.46200561523438 216.98800659179688 L 318.29998779296875 133.9759979248047 Z"
            style="fill-rule: nonzero; paint-order: stroke; stroke: rgb(197, 221, 172); stroke-width: 150.381px; stroke-linejoin: round; fill: rgb(197, 221, 172);" />
        <path
            d="M 213.06900024414062 205.85000610351562 L 165.85699462890625 323.68701171875 L 242.62399291992188 274.6409912109375 L 225.3730010986328 366.1409912109375 L 137.7790069580078 452.10400390625 L 129 504.6759948730469 L 142.96299743652344 456.16400146484375 L 240.5070037841797 385.26300048828125 L 297.4649963378906 208.58200073242188 L 208.36099243164062 273.3800048828125 L 231.46200561523438 216.98800659179688 L 318.29998779296875 133.9759979248047 Z"
            style="fill-rule: nonzero; paint-order: stroke; stroke: rgb(255, 255, 255); stroke-width: 75.1906px; stroke-linejoin: round; fill: rgb(255, 255, 255);" />
        <polygon
            style="fill-rule: nonzero; paint-order: stroke; fill: rgb(182, 213, 151); stroke-width: 75.1906px; stroke-linejoin: round;"
            points="213.069 205.85 165.857 323.687 242.624 274.641 225.373 366.141 137.779 452.104 129 504.676 142.963 456.164 240.507 385.263 297.465 208.582 208.361 273.38 231.462 216.988 318.3 133.976" />
    </g>
    <!-- </g> -->
</svg>